#!OML:ASF I:\Actors\actors\Patient Classification 2\Patient 1\Session 1\actor1.ASF
:FULLY-SPECIFIED
:DEGREES
479
root -0.358716 18.7289 5.55117 14.3588 7.43117 -0.815022
lowerback 20.1624 -1.81888 5.61652
upperback 3.67797 -0.916425 2.99766
thorax -7.31731 -0.527858 0.285101
lowerneck -10.1534 -0.976393 -0.359317
upperneck 4.43743 0.0472505 -18.8609
head 3.06172 -0.767204 -5.74592
rclavicle -7.95139e-016 -3.18055e-015
rhumerus 39.9413 23.5853 -65.2616
rradius 128.674
rwrist 15.5367
rhand 5.74131 -42.3435
rfingers 7.12502
rthumb 31.0768 290.27
lclavicle -7.95139e-016 -3.18055e-015
lhumerus -26.8201 -19.264 91.1351
lradius 111.76
lwrist -1.15355
lhand -1.67144 -6.70928
lfingers 7.12502
lthumb 23.9885 21.8119
rfemur -11.6799 -2.91065 14.5282
rtibia 10.4048
rfoot -22.5204 -15.7564
rtoes -8.57283
lfemur -27.4979 -5.69867 -12.3127
ltibia 30.4179
lfoot -17.7341 5.35217
ltoes -55.8451
480
root -0.360657 18.7279 5.5396 14.337 7.43531 -0.863352
lowerback 20.1915 -1.86413 5.65587
upperback 3.64014 -0.972753 2.87778
thorax -7.37877 -0.558503 0.149446
lowerneck -10.0657 -1.23322 -0.867102
upperneck 3.73704 -0.371073 -18.6818
head 2.79901 -0.92346 -5.61177
rclavicle -2.5842e-014 2.46493e-014
rhumerus 38.752 24.3232 -66.3322
rradius 129.793
rwrist 15.9404
rhand 4.97409 -41.8263
rfingers 7.12502
rthumb 30.3453 290.65
lclavicle -2.5842e-014 2.46493e-014
lhumerus -27.0286 -19.1393 91.1959
lradius 111.886
lwrist -1.18517
lhand -1.65172 -6.71056
lfingers 7.12502
lthumb 24.0074 21.8081
rfemur -11.676 -2.89789 14.5832
rtibia 10.3551
rfoot -22.4976 -15.8081
rtoes -8.6667
lfemur -27.487 -5.67639 -12.2462
ltibia 30.3796
lfoot -17.762 5.24714
ltoes -55.7038
481
root -0.362363 18.7274 5.5307 14.3094 7.43288 -0.909623
lowerback 20.2096 -1.89694 5.66422
upperback 3.61748 -1.01891 2.78536
thorax -7.41679 -0.582757 0.0577652
lowerneck -10.0419 -1.4563 -1.33368
upperneck 2.98281 -0.750409 -18.5514
head 2.53759 -1.05955 -5.49859
rclavicle -1.11319e-014 -1.27222e-014
rhumerus 38.4406 25.3439 -66.1813
rradius 130.578
rwrist 19.3717
rhand 2.89505 -42.9422
rfingers 7.12502
rthumb 28.3603 289.186
lclavicle -1.11319e-014 -1.27222e-014
lhumerus -27.1369 -19.0027 91.3046
lradius 111.944
lwrist -1.25617
lhand -1.5418 -6.71868
lfingers 7.12502
lthumb 24.1128 21.7861
rfemur -11.6615 -2.89347 14.631
rtibia 10.3232
rfoot -22.4761 -15.7913
rtoes -8.65131
lfemur -27.4658 -5.65743 -12.1896
ltibia 30.3397
lfoot -17.7658 5.20224
ltoes -55.7124
482
root -0.363624 18.7261 5.52334 14.2971 7.40994 -0.907364
lowerback 20.2131 -1.927 5.61623
upperback 3.5753 -1.07521 2.67627
thorax -7.46838 -0.611305 -0.0174006
lowerneck -10.0031 -1.62923 -1.6903
upperneck 2.27584 -1.06464 -18.5102
head 2.295 -1.16602 -5.42962
rclavicle -3.18055e-015 1.35174e-014
rhumerus 38.4127 25.6568 -66.3157
rradius 130.817
rwrist 21.6517
rhand 1.47613 -42.8603
rfingers 7.12502
rthumb 27.0035 289.05
lclavicle -3.18055e-015 1.35174e-014
lhumerus -27.2383 -18.8367 91.4206
lradius 111.964
lwrist -1.39013
lhand -1.39243 -6.66433
lfingers 7.12502
lthumb 24.256 21.8214
rfemur -11.6548 -2.88818 14.6176
rtibia 10.2946
rfoot -22.4685 -15.7313
rtoes -8.65075
lfemur -27.4447 -5.64806 -12.1965
ltibia 30.3049
lfoot -17.8024 5.20091
ltoes -55.7871
483
root -0.365301 18.7258 5.51663 14.2979 7.37642 -0.873928
lowerback 20.1967 -1.96726 5.55295
upperback 3.50646 -1.15196 2.52753
thorax -7.54 -0.650488 -0.12132
lowerneck -9.92716 -1.74906 -1.9174
upperneck 1.67143 -1.3094 -18.472
head 2.08268 -1.24128 -5.38073
rclavicle 2.0276e-014 -2.3059e-014
rhumerus 37.5045 26.1949 -67.3243
rradius 131.437
rwrist 23.0884
rhand 0.778938 -41.909
rfingers 7.12502
rthumb 26.3362 289.9
lclavicle 2.0276e-014 -2.3059e-014
lhumerus -27.4605 -18.7032 91.4469
lradius 112.032
lwrist -1.43637
lhand -1.31176 -6.58788
lfingers 7.12502
lthumb 24.3334 21.8875
rfemur -11.6592 -2.89387 14.5757
rtibia 10.262
rfoot -22.4402 -15.7267
rtoes -8.85205
lfemur -27.4403 -5.6365 -12.2374
ltibia 30.2862
lfoot -17.8562 5.20228
ltoes -55.808
484
root -0.367419 18.7249 5.50948 14.2812 7.33613 -0.866397
lowerback 20.1909 -1.98797 5.57121
upperback 3.4595 -1.18784 2.36131
thorax -7.59362 -0.671713 -0.301366
lowerneck -10.0229 -1.88564 -2.1357
upperneck 1.22027 -1.5395 -18.394
head 1.94653 -1.32667 -5.32569
rclavicle -2.78299e-015 -1.27222e-014
rhumerus 37.0017 26.6611 -68.0051
rradius 131.927
rwrist 25.3542
rhand 0.452066 -41.8314
rfingers 7.12502
rthumb 26.0233 289.931
lclavicle -2.78299e-015 -1.27222e-014
lhumerus -27.6945 -18.6729 91.4423
lradius 112.104
lwrist -1.42149
lhand -1.2946 -6.56495
lfingers 7.12502
lthumb 24.3498 21.9082
rfemur -11.6503 -2.88069 14.5639
rtibia 10.2213
rfoot -22.4367 -15.7129
rtoes -8.81944
lfemur -27.44 -5.53043 -12.2656
ltibia 30.279
lfoot -17.8376 5.18017
ltoes -55.8572
